PathFileType	4	(X/Y/Z)	./resultDataOpenSim/trcMotMarkerGrf/sub09/qtm-03-01.trc
DataRate	CameraRate	NumFrames	NumMarkers	Units	OrigDataRate	OrigDataStartFrame	OrigNumFrames
250.000000	250.000000	14	24	m	250.000000	179	477
Frame#	Time	L.Toe.Tip			R.Toe.Tip			L.Ankle.Lat			R.Ankle.Lat			L.Ankle.Med			R.Ankle.Med			L.Heel			R.Heel			L.Knee.Lat			R.Knee.Lat			L.Knee.Med			R.Knee.Med			L.Thigh.Upper			R.Thigh.Upper			L.ASIS			R.ASIS			V.Sacral			L.Acromium			R.Acromium			C7			L.Elbow			R.Elbow			L.Wrist.Lat			R.Wrist.Lat
		X1	Y1	Z1	X2	Y2	Z2	X3	Y3	Z3	X4	Y4	Z4	X5	Y5	Z5	X6	Y6	Z6	X7	Y7	Z7	X8	Y8	Z8	X9	Y9	Z9	X10	Y10	Z10	X11	Y11	Z11	X12	Y12	Z12	X13	Y13	Z13	X14	Y14	Z14	X15	Y15	Z15	X16	Y16	Z16	X17	Y17	Z17	X18	Y18	Z18	X19	Y19	Z19	X20	Y20	Z20	X21	Y21	Z21	X22	Y22	Z22	X23	Y23	Z23	X24	Y24	Z24

179	0.712	0.12566569	-0.009739617	-0.019359954	-0.63089874	0.058987276	0.088232311	-0.020502034	0.022389989	-0.067983227	-0.69175781	0.19645179	0.12271759	-0.0058296143	0.043285124	0.02852175	-0.642363	0.19575064	0.03727639	-0.095467737	-0.011972467	-0.027066708	-0.73773352	0.23269393	0.059669608	0.0087540076	0.43346745	-0.11995591	-0.29761426	0.40617905	0.19579093	0.0031763136	0.43651185	0.0057726582	-0.28154571	0.37622155	0.065860615	-0.19437153	0.8051858	-0.16912749	-0.24508004	0.79401931	0.2029103	-0.13377	0.89438651	-0.10161625	-0.140472	0.88077354	0.14029746	-0.3092469	0.93388285	0.008679923	-0.16516531	1.3326238	-0.1596301	-0.17933051	1.3508345	0.17195481	-0.23946475	1.3923914	0.0051794239	-0.31077653	0.99671188	-0.2132054	-0.28872678	0.9947626	0.25731682	-0.20177346	0.76171727	-0.2649178	-0.090665886	0.80396146	0.25151562
180	0.716	0.12578375	-0.0098564175	-0.019267386	-0.62618715	0.06107817	0.088674474	-0.020155282	0.02226612	-0.067876323	-0.68121807	0.20140593	0.12375663	-0.0055098739	0.043118547	0.028680081	-0.63216986	0.19925757	0.038310796	-0.095406302	-0.011890182	-0.027022619	-0.72665302	0.23935883	0.061325936	0.013241948	0.43266307	-0.12007356	-0.28628306	0.40616991	0.19716012	0.0077323616	0.43549099	0.0054873211	-0.2693473	0.37507502	0.066256806	-0.1880191	0.80522276	-0.16947986	-0.23691261	0.79337739	0.20138254	-0.12761998	0.8946545	-0.10227206	-0.13445329	0.88071613	0.13963189	-0.30287064	0.93436028	0.0081900625	-0.15831713	1.3328219	-0.15978475	-0.17214295	1.3509314	0.1718063	-0.232526	1.3927401	0.0049105355	-0.30337212	0.99668832	-0.21395723	-0.28280094	0.99535792	0.25701518	-0.19351352	0.7619291	-0.26473744	-0.087077211	0.80226806	0.25186369
181	0.72	0.12586825	-0.0099445672	-0.019227276	-0.62097859	0.063193071	0.089216842	-0.019814302	0.022130989	-0.06784979	-0.67032128	0.20606249	0.12475693	-0.0052173568	0.04299234	0.028749449	-0.62174543	0.2027374	0.039227298	-0.095369465	-0.011825853	-0.0270381	-0.71519941	0.24579694	0.062957125	0.017513755	0.43199831	-0.12022841	-0.27446631	0.40594811	0.1979427	0.011716934	0.43459858	0.0050967587	-0.25725126	0.37433612	0.066422324	-0.18160098	0.80538197	-0.16982343	-0.22937634	0.79304569	0.20009039	-0.1214401	0.8949209	-0.1028157	-0.12856532	0.8808224	0.13907562	-0.29623599	0.93514623	0.0079215183	-0.15148883	1.3331226	-0.15994174	-0.16504988	1.3511121	0.17167166	-0.22563189	1.3932217	0.004670864	-0.29609118	0.99674127	-0.2145915	-0.27686831	0.99601126	0.25680928	-0.1852257	0.76224629	-0.26451161	-0.083528807	0.80065528	0.25222071
182	0.724	0.12590734	-0.010011226	-0.019208484	-0.61514551	0.065367739	0.089930649	-0.019503595	0.022004347	-0.067882138	-0.65922886	0.21037185	0.12568062	-0.0050002753	0.042899073	0.02875438	-0.61098904	0.20614829	0.040067819	-0.09537147	-0.011790683	-0.027106001	-0.70323439	0.25189561	0.064416786	0.021450075	0.4314654	-0.12042459	-0.26227675	0.40543723	0.1980744	0.015272149	0.43389386	0.0046732193	-0.24518379	0.37396457	0.06638244	-0.1751499	0.8057019	-0.17017136	-0.22282118	0.79299753	0.19928841	-0.1152838	0.8952014	-0.10326011	-0.12281137	0.88108045	0.13862369	-0.28951086	0.93613202	0.007692213	-0.14468944	1.3335207	-0.16009776	-0.15808086	1.3513812	0.17154271	-0.21883796	1.3938347	0.0045196754	-0.2889072	0.99688435	-0.21512208	-0.27093411	0.99674099	0.25668281	-0.17692287	0.76266741	-0.26424058	-0.080024439	0.79912684	0.25259228
183	0.728	0.12590107	-0.010062805	-0.019202333	-0.60847877	0.067669908	0.090860597	-0.019248364	0.02190786	-0.067945638	-0.64801011	0.21436154	0.12653594	-0.0048670168	0.042833075	0.028720273	-0.59982265	0.2094971	0.040891653	-0.095412487	-0.011780387	-0.027197092	-0.69078334	0.25763791	0.065695989	0.024891066	0.43102778	-0.1205909	-0.24948888	0.40458088	0.19748433	0.018549032	0.43341073	0.0042911039	-0.23312076	0.37392825	0.066234777	-0.16875797	0.80619529	-0.1705241	-0.21706381	0.79317048	0.19889636	-0.10921265	0.89551799	-0.1036352	-0.11718691	0.88148459	0.13827553	-0.2828877	0.93721914	0.0073797594	-0.13793784	1.3340171	-0.16025103	-0.15125654	1.3517487	0.17140526	-0.21212351	1.3945686	0.0044361537	-0.28176265	0.9971259	-0.21564438	-0.2650026	0.99756013	0.25662844	-0.16860435	0.7631923	-0.26391501	-0.076579441	0.79769092	0.25298141
184	0.732	0.12586034	-0.010103368	-0.019202017	-0.60075127	0.070172265	0.092013282	-0.019079896	0.021839045	-0.068019072	-0.63667274	0.2181159	0.12733573	-0.0047971066	0.042790714	0.028667613	-0.58835957	0.2128321	0.041712203	-0.095480994	-0.01178053	-0.027278166	-0.67808377	0.26306503	0.066894645	0.027763663	0.43066205	-0.12065945	-0.23601239	0.40345947	0.1962778	0.02159103	0.43312626	0.0039683595	-0.22118597	0.37422597	0.066146329	-0.16256054	0.80685528	-0.17088384	-0.21179028	0.7935368	0.19871643	-0.10329482	0.8958897	-0.10398708	-0.11163996	0.88204641	0.13804612	-0.27653029	0.93833981	0.0069454448	-0.13123574	1.3346221	-0.1603984	-0.14456632	1.3522275	0.1712597	-0.20546267	1.3954125	0.0043842214	-0.27465103	0.99746624	-0.21624957	-0.25908278	0.9984766	0.25665484	-0.16025732	0.76382891	-0.2635199	-0.073208368	0.79636414	0.2533864
185	0.736	0.12580359	-0.010134208	-0.019197321	-0.59183732	0.072916986	0.093359684	-0.019013427	0.021772984	-0.068089719	-0.62519617	0.22173118	0.12807531	-0.0047604736	0.042770481	0.028609867	-0.57679676	0.21620658	0.042462274	-0.095560253	-0.011775036	-0.027333492	-0.66541752	0.26814608	0.068085069	0.030293529	0.43037243	-0.12071426	-0.2222424	0.40244124	0.19490488	0.024427861	0.43298549	0.0037095242	-0.20955402	0.37486399	0.066254503	-0.15665704	0.80766552	-0.17125374	-0.20676424	0.79409078	0.19860551	-0.097544845	0.8963375	-0.10433613	-0.10610464	0.88277933	0.13794304	-0.2704728	0.93948907	0.0064088357	-0.1245697	1.3353444	-0.16053241	-0.13798304	1.3528294	0.17112492	-0.19884217	1.3963504	0.0042952064	-0.26759911	0.99790275	-0.21699714	-0.25319208	0.99949778	0.25678033	-0.15187053	0.7645978	-0.26304776	-0.069913411	0.79516806	0.25380523
186	0.74	0.12574939	-0.01015549	-0.019187649	-0.5817703	0.075892164	0.094860247	-0.019017858	0.021694449	-0.06815239	-0.61354804	0.22528402	0.1287529	-0.0047284879	0.042770272	0.02855299	-0.56520808	0.21964007	0.043070847	-0.095633117	-0.011753119	-0.027366056	-0.65295924	0.27276498	0.06922482	0.032899628	0.43017309	-0.12098605	-0.20872438	0.40196889	0.19387135	0.02719249	0.43294	0.0035554793	-0.19819792	0.37581075	0.066496343	-0.15101752	0.8086153	-0.17162685	-0.20181476	0.79482036	0.1984932	-0.091818503	0.89690999	-0.10460969	-0.10057968	0.88367371	0.13793384	-0.26461127	0.94071148	0.0058078531	-0.11792429	1.3361815	-0.16064241	-0.13149637	1.3535585	0.17101835	-0.19223302	1.3973588	0.0040281652	-0.26061581	0.99844968	-0.21785873	-0.24734462	1.0006331	0.25700746	-0.14344419	0.76552081	-0.26250381	-0.066687641	0.79411778	0.25423896
187	0.744	0.12570935	-0.010169037	-0.019187345	-0.57069492	0.079032894	0.096489455	-0.019026645	0.02161611	-0.068207383	-0.60169631	0.22881981	0.12937994	-0.0046772548	0.042783944	0.028496918	-0.55353188	0.22310901	0.043561423	-0.095686425	-0.011711251	-0.027383348	-0.64076725	0.27680901	0.070174154	0.03577902	0.43005303	-0.12158513	-0.19558635	0.40219944	0.19327473	0.030055322	0.43295176	0.0035544182	-0.18684111	0.37699179	0.066606807	-0.14550882	0.80970215	-0.17198452	-0.19685909	0.79570091	0.19835879	-0.085865607	0.89767942	-0.1046703	-0.095108259	0.88470108	0.13796727	-0.25882402	0.94203348	0.0051775074	-0.1112824	1.3371231	-0.16071694	-0.12511872	1.3544115	0.17094379	-0.18560827	1.3984192	0.0035019402	-0.25367742	0.99913871	-0.21870231	-0.24153841	1.0018924	0.2573004	-0.1349881	0.76660441	-0.2618986	-0.063525356	0.79321871	0.25469048
188	0.748	0.12568641	-0.010179295	-0.019212827	-0.5587694	0.082255064	0.09823348	-0.018991677	0.021559094	-0.068256663	-0.5896107	0.2323448	0.12996481	-0.0045921982	0.042802705	0.028439299	-0.54168822	0.22656796	0.044007402	-0.095715703	-0.011650649	-0.027388228	-0.62881394	0.28025291	0.070809405	0.038750978	0.42996325	-0.12234593	-0.18259496	0.40296656	0.19281952	0.033005569	0.43296805	0.0036698262	-0.17525161	0.37834497	0.066370178	-0.14002947	0.81091894	-0.172314	-0.1919037	0.79670107	0.1982029	-0.079615342	0.898669	-0.10448216	-0.089708894	0.88584059	0.13800979	-0.25306096	0.94343778	0.0045688559	-0.10462704	1.3381605	-0.16074774	-0.11886278	1.3553847	0.17089908	-0.17898623	1.3995415	0.0029054458	-0.24675596	0.9999873	-0.2194018	-0.23577467	1.0032807	0.25761263	-0.12651527	0.76784189	-0.26124078	-0.060424574	0.79247673	0.25516089
189	0.752	0.12567649	-0.010190948	-0.019267613	-0.5460986	0.085493168	0.1000752	-0.018917355	0.02152962	-0.068301474	-0.57726676	0.23581561	0.130507	-0.0044739703	0.0428204	0.028378627	-0.52966188	0.22996793	0.04440525	-0.095726401	-0.01157473	-0.027379571	-0.61697099	0.28317965	0.071149904	0.041533932	0.42985607	-0.12303073	-0.1696104	0.40397654	0.19224069	0.035797345	0.43292285	0.0037581553	-0.16344526	0.37986217	0.065794276	-0.13457902	0.81224972	-0.17262534	-0.18695135	0.79780192	0.19801646	-0.073292208	0.8998143	-0.10418392	-0.084369918	0.88709007	0.1380456	-0.24733815	0.9449036	0.0040627775	-0.097949692	1.3392917	-0.16073441	-0.11272423	1.3564765	0.17088193	-0.17242272	1.4007609	0.0025822762	-0.23984393	1.0009833	-0.21993987	-0.23007339	1.0047975	0.25792266	-0.11804274	0.76922657	-0.26054025	-0.05738285	0.7919067	0.25564805
190	0.756	0.12567038	-0.010206049	-0.019342817	-0.53275053	0.088696959	0.10199349	-0.01884129	0.021520338	-0.068342313	-0.56466685	0.23914287	0.13101285	-0.0043374843	0.042837297	0.028314525	-0.51748509	0.23323323	0.044684997	-0.095730881	-0.011488591	-0.027356871	-0.60504722	0.28572465	0.071353852	0.044000139	0.42972465	-0.12355333	-0.15667694	0.40499606	0.19153229	0.038216349	0.43278772	0.0036930338	-0.15152752	0.38155193	0.065018828	-0.12920868	0.81367573	-0.1729424	-0.18190083	0.79900718	0.19776607	-0.067149863	0.90103656	-0.10393883	-0.079068306	0.88845261	0.13806589	-0.24168843	0.94643309	0.0037226789	-0.091248855	1.3405168	-0.16068081	-0.10668386	1.3576847	0.17088695	-0.16595805	1.4020967	0.0026298963	-0.23294996	1.002104	-0.22037834	-0.22444193	1.0064396	0.25820917	-0.10959455	0.77075439	-0.2598137	-0.054396306	0.7915259	0.2561487
191	0.76	0.12565696	-0.010223361	-0.019429394	-0.5188109	0.091806869	0.10396777	-0.018797263	0.021522348	-0.06838032	-0.55185518	0.24221744	0.13149772	-0.0042027073	0.042859416	0.028246549	-0.50516345	0.2362369	0.044846976	-0.095741982	-0.011398209	-0.027322901	-0.59291584	0.28799151	0.071592096	0.046155369	0.42958725	-0.12396193	-0.14382914	0.40599811	0.19078598	0.04028837	0.43259906	0.0034704779	-0.13948859	0.38337603	0.06415655	-0.12396679	0.81517449	-0.17326896	-0.1765621	0.80032461	0.19741038	-0.061239569	0.90231345	-0.10379653	-0.073776428	0.88992226	0.13806462	-0.23610881	0.94803169	0.0035043224	-0.084523184	1.341829	-0.1605871	-0.1007208	1.3590013	0.17090738	-0.15958389	1.4035263	0.0028208109	-0.22608359	1.0033354	-0.22077887	-0.21886944	1.0082022	0.25844343	-0.10118903	0.77242005	-0.2590785	-0.051459908	0.79134162	0.25665928
192	0.764	0.12562844	-0.010239542	-0.01952465	-0.50439495	0.094761007	0.1059702	-0.018798459	0.021529647	-0.068418936	-0.53890828	0.24494284	0.13196592	-0.0040846442	0.042893902	0.028172948	-0.4926633	0.23885727	0.044995852	-0.095766234	-0.01130812	-0.027283035	-0.58058725	0.29000044	0.071958592	0.048037497	0.42945304	-0.12433258	-0.13107765	0.40714946	0.19000008	0.042164217	0.43241746	0.0031614263	-0.12724391	0.38527255	0.063236466	-0.11890709	0.81671577	-0.17355857	-0.1708165	0.80174648	0.19694328	-0.055477536	0.90365691	-0.1037287	-0.0684744	0.89148575	0.13803534	-0.2305507	0.94968597	0.0032326803	-0.077774463	1.3432169	-0.16045336	-0.094825362	1.3604155	0.17094134	-0.15326023	1.4050092	0.002931739	-0.21924985	1.0046747	-0.22117188	-0.21337241	1.0100724	0.25864099	-0.092817081	0.77421786	-0.25833651	-0.048565023	0.7913499	0.25717645
